<?xml version="1.0" encoding="UTF-8" standalone="no"?>
<!-- Created with Inkscape (http://www.inkscape.org/) -->

<svg
   xmlns:dc="http://purl.org/dc/elements/1.1/"
   xmlns:cc="http://creativecommons.org/ns#"
   xmlns:rdf="http://www.w3.org/1999/02/22-rdf-syntax-ns#"
   xmlns:svg="http://www.w3.org/2000/svg"
   xmlns="http://www.w3.org/2000/svg"
   xmlns:xlink="http://www.w3.org/1999/xlink"
   xmlns:sodipodi="http://sodipodi.sourceforge.net/DTD/sodipodi-0.dtd"
   xmlns:inkscape="http://www.inkscape.org/namespaces/inkscape"
   width="744.09448819"
   height="1052.3622047"
   id="svg2"
   version="1.1"
   inkscape:version="0.48.1 r9760"
   sodipodi:docname="enso.svg">
  <defs
     id="defs4">
    <linearGradient
       id="linearGradient3757">
      <stop
         style="stop-color:#000000;stop-opacity:1;"
         offset="0"
         id="stop3759" />
      <stop
         style="stop-color:#005983;stop-opacity:1;"
         offset="1"
         id="stop3761" />
    </linearGradient>
    <radialGradient
       inkscape:collect="always"
       xlink:href="#linearGradient3757"
       id="radialGradient3763"
       cx="376.831"
       cy="500.54997"
       fx="376.831"
       fy="500.54997"
       r="311.87248"
       gradientTransform="matrix(1,0,0,0.85375825,0,73.201304)"
       gradientUnits="userSpaceOnUse" />
  </defs>
  <sodipodi:namedview
     id="base"
     pagecolor="#ffffff"
     bordercolor="#666666"
     borderopacity="1.0"
     inkscape:pageopacity="0.0"
     inkscape:pageshadow="2"
     inkscape:zoom="0.35"
     inkscape:cx="256.61687"
     inkscape:cy="520"
     inkscape:document-units="px"
     inkscape:current-layer="layer1"
     showgrid="false"
     inkscape:window-width="933"
     inkscape:window-height="832"
     inkscape:window-x="263"
     inkscape:window-y="0"
     inkscape:window-maximized="0" />
  <metadata
     id="metadata7">
    <rdf:RDF>
      <cc:Work
         rdf:about="">
        <dc:format>image/svg+xml</dc:format>
        <dc:type
           rdf:resource="http://purl.org/dc/dcmitype/StillImage" />
        <dc:title></dc:title>
      </cc:Work>
    </rdf:RDF>
  </metadata>
  <g
     inkscape:label="Layer 1"
     inkscape:groupmode="layer"
     id="layer1">
    <path
       style="fill:url(#radialGradient3763);fill-opacity:1;stroke:none;stroke-width:1px;stroke-linecap:butt;stroke-linejoin:miter;stroke-opacity:1"
       d="m 370.80486,760.16633 c 109.52992,-24.50557 210.95796,-51.8241 260,-114.28572 53.5694,-68.22782 75.6953,-178.08236 40,-257.14285 C 632.21103,303.25742 526.82928,248.0902 433.662,237.30919 322.35519,224.42913 185.90907,260.75969 116.51914,348.73776 59.006349,421.65705 76.667455,566.41071 113.66199,651.5949 c 130.87278,79.63894 292.49079,179.7096 265.71429,8.57143 0,0 -147.16504,-13.06421 -174.28571,-57.14286 -32.92404,-53.51075 -22.76404,-162.51593 22.85715,-205.71428 58.45525,-55.35078 186.44257,-55.56849 259.99999,-22.85715 48.80178,21.70239 84.17957,83.74942 82.85715,137.14286 -1.30805,52.81305 -42.84512,104.97041 -88.57143,131.42857 -23.14011,13.38934 -90.91029,-1.87971 -117.14286,28.57143 -20.59729,23.90962 -25.0825,95.46172 5.71429,88.57143 z"
       id="path2987"
       inkscape:connector-curvature="0"
       sodipodi:nodetypes="sssssccsssssss"
       inkscape:export-xdpi="50"
       inkscape:export-ydpi="50" />
  </g>
</svg>
